<mxfile host="app.diagrams.net" agent="Mozilla/5.0 (X11; Linux x86_64; rv:129.0) Gecko/20100101 Firefox/129.0" version="24.7.16">
  <diagram id="6a731a19-8d31-9384-78a2-239565b7b9f0" name="Page-1">
    <mxGraphModel dx="1509" dy="812" grid="1" gridSize="10" guides="1" tooltips="1" connect="1" arrows="1" fold="1" page="1" pageScale="1" pageWidth="1169" pageHeight="827" background="none" math="0" shadow="0">
      <root>
        <mxCell id="0" />
        <mxCell id="1" parent="0" />
        <mxCell id="2" value="FT_LS" style="shape=mxgraph.flowchart.terminator;strokeWidth=2;gradientColor=none;gradientDirection=north;fontStyle=0;html=1;" parent="1" vertex="1">
          <mxGeometry x="260" y="60" width="120" height="30" as="geometry" />
        </mxCell>
        <mxCell id="3" value="Init&lt;u&gt; struct ARGS&lt;br&gt;&lt;/u&gt;" style="shape=mxgraph.flowchart.data;strokeWidth=2;gradientColor=none;gradientDirection=north;fontStyle=0;html=1;" parent="1" vertex="1">
          <mxGeometry x="240.5" y="130" width="159" height="80" as="geometry" />
        </mxCell>
        <mxCell id="7" style="fontStyle=1;strokeColor=#003366;strokeWidth=1;html=1;" parent="1" source="2" target="3" edge="1">
          <mxGeometry relative="1" as="geometry" />
        </mxCell>
        <mxCell id="8" style="fontStyle=1;strokeColor=#003366;strokeWidth=1;html=1;" parent="1" source="3" edge="1">
          <mxGeometry relative="1" as="geometry">
            <mxPoint x="320" y="250" as="targetPoint" />
          </mxGeometry>
        </mxCell>
        <mxCell id="45" value="" style="edgeStyle=elbowEdgeStyle;elbow=horizontal;exitX=1;exitY=0.5;exitPerimeter=0;entryX=0.905;entryY=0.5;entryPerimeter=0;fontStyle=1;strokeColor=#003366;strokeWidth=1;html=1;" parent="1" target="34" edge="1">
          <mxGeometry width="100" height="100" as="geometry">
            <mxPoint x="380.5" y="1119.25" as="sourcePoint" />
            <mxPoint x="100" as="targetPoint" />
            <Array as="points">
              <mxPoint x="950" y="1320" />
            </Array>
          </mxGeometry>
        </mxCell>
        <mxCell id="l7O6cIsBJEB4oKwaQnPY-69" value="" style="edgeStyle=orthogonalEdgeStyle;rounded=0;orthogonalLoop=1;jettySize=auto;html=1;" edge="1" parent="1" source="l7O6cIsBJEB4oKwaQnPY-60" target="l7O6cIsBJEB4oKwaQnPY-68">
          <mxGeometry relative="1" as="geometry" />
        </mxCell>
        <mxCell id="l7O6cIsBJEB4oKwaQnPY-70" value="&lt;div&gt;yes&lt;/div&gt;" style="edgeLabel;html=1;align=center;verticalAlign=middle;resizable=0;points=[];" vertex="1" connectable="0" parent="l7O6cIsBJEB4oKwaQnPY-69">
          <mxGeometry x="-0.0667" y="4" relative="1" as="geometry">
            <mxPoint x="68" y="-4" as="offset" />
          </mxGeometry>
        </mxCell>
        <mxCell id="l7O6cIsBJEB4oKwaQnPY-73" value="YES" style="edgeLabel;html=1;align=center;verticalAlign=middle;resizable=0;points=[];" vertex="1" connectable="0" parent="l7O6cIsBJEB4oKwaQnPY-69">
          <mxGeometry y="5" relative="1" as="geometry">
            <mxPoint as="offset" />
          </mxGeometry>
        </mxCell>
        <mxCell id="l7O6cIsBJEB4oKwaQnPY-72" value="" style="edgeStyle=orthogonalEdgeStyle;rounded=0;orthogonalLoop=1;jettySize=auto;html=1;" edge="1" parent="1" source="l7O6cIsBJEB4oKwaQnPY-60" target="l7O6cIsBJEB4oKwaQnPY-71">
          <mxGeometry relative="1" as="geometry" />
        </mxCell>
        <mxCell id="l7O6cIsBJEB4oKwaQnPY-74" value="NO" style="edgeLabel;html=1;align=center;verticalAlign=middle;resizable=0;points=[];" vertex="1" connectable="0" parent="l7O6cIsBJEB4oKwaQnPY-72">
          <mxGeometry x="-0.1529" y="-3" relative="1" as="geometry">
            <mxPoint as="offset" />
          </mxGeometry>
        </mxCell>
        <mxCell id="l7O6cIsBJEB4oKwaQnPY-121" value="" style="edgeStyle=orthogonalEdgeStyle;rounded=0;orthogonalLoop=1;jettySize=auto;html=1;exitX=0.5;exitY=1;exitDx=0;exitDy=0;exitPerimeter=0;dashed=1;dashPattern=8 8;" edge="1" parent="1" source="l7O6cIsBJEB4oKwaQnPY-62" target="l7O6cIsBJEB4oKwaQnPY-80">
          <mxGeometry relative="1" as="geometry">
            <mxPoint x="640" y="410" as="sourcePoint" />
            <Array as="points">
              <mxPoint x="325" y="400" />
              <mxPoint x="325" y="400" />
            </Array>
          </mxGeometry>
        </mxCell>
        <mxCell id="l7O6cIsBJEB4oKwaQnPY-60" value="Arg start with &#39;-&#39; ?" style="rhombus;whiteSpace=wrap;html=1;" vertex="1" parent="1">
          <mxGeometry x="610" y="340" width="130" height="80" as="geometry" />
        </mxCell>
        <mxCell id="l7O6cIsBJEB4oKwaQnPY-120" value="" style="edgeStyle=orthogonalEdgeStyle;rounded=0;orthogonalLoop=1;jettySize=auto;html=1;" edge="1" parent="1" source="l7O6cIsBJEB4oKwaQnPY-62" target="l7O6cIsBJEB4oKwaQnPY-60">
          <mxGeometry relative="1" as="geometry" />
        </mxCell>
        <mxCell id="l7O6cIsBJEB4oKwaQnPY-62" value="For each binary arg" style="strokeWidth=2;html=1;shape=mxgraph.flowchart.loop_limit;whiteSpace=wrap;" vertex="1" parent="1">
          <mxGeometry x="260" y="250" width="130" height="60" as="geometry" />
        </mxCell>
        <mxCell id="l7O6cIsBJEB4oKwaQnPY-68" value="Valid option ?&lt;div&gt;Add to struct args&lt;/div&gt;" style="rounded=1;whiteSpace=wrap;html=1;" vertex="1" parent="1">
          <mxGeometry x="420" y="350" width="120" height="60" as="geometry" />
        </mxCell>
        <mxCell id="l7O6cIsBJEB4oKwaQnPY-71" value="Add arg to LIST_PATHS" style="rounded=1;whiteSpace=wrap;html=1;" vertex="1" parent="1">
          <mxGeometry x="825" y="350" width="120" height="60" as="geometry" />
        </mxCell>
        <mxCell id="l7O6cIsBJEB4oKwaQnPY-122" value="" style="edgeStyle=orthogonalEdgeStyle;rounded=0;orthogonalLoop=1;jettySize=auto;html=1;" edge="1" parent="1" source="l7O6cIsBJEB4oKwaQnPY-80" target="l7O6cIsBJEB4oKwaQnPY-87">
          <mxGeometry relative="1" as="geometry" />
        </mxCell>
        <mxCell id="l7O6cIsBJEB4oKwaQnPY-125" value="" style="edgeStyle=orthogonalEdgeStyle;rounded=0;orthogonalLoop=1;jettySize=auto;html=1;dashed=1;dashPattern=8 8;" edge="1" parent="1" source="l7O6cIsBJEB4oKwaQnPY-80" target="l7O6cIsBJEB4oKwaQnPY-124">
          <mxGeometry relative="1" as="geometry" />
        </mxCell>
        <mxCell id="l7O6cIsBJEB4oKwaQnPY-80" value="For each path in LIST_PATHS" style="strokeWidth=2;html=1;shape=mxgraph.flowchart.loop_limit;whiteSpace=wrap;" vertex="1" parent="1">
          <mxGeometry x="260" y="510" width="130" height="60" as="geometry" />
        </mxCell>
        <mxCell id="l7O6cIsBJEB4oKwaQnPY-82" value="" style="edgeStyle=orthogonalEdgeStyle;rounded=0;orthogonalLoop=1;jettySize=auto;html=1;" edge="1" parent="1" source="l7O6cIsBJEB4oKwaQnPY-87">
          <mxGeometry relative="1" as="geometry">
            <mxPoint x="850" y="680" as="targetPoint" />
          </mxGeometry>
        </mxCell>
        <mxCell id="l7O6cIsBJEB4oKwaQnPY-83" value="&lt;div&gt;yes&lt;/div&gt;" style="edgeLabel;html=1;align=center;verticalAlign=middle;resizable=0;points=[];" vertex="1" connectable="0" parent="l7O6cIsBJEB4oKwaQnPY-82">
          <mxGeometry x="-0.0667" y="4" relative="1" as="geometry">
            <mxPoint x="68" y="-4" as="offset" />
          </mxGeometry>
        </mxCell>
        <mxCell id="l7O6cIsBJEB4oKwaQnPY-84" value="YES" style="edgeLabel;html=1;align=center;verticalAlign=middle;resizable=0;points=[];" vertex="1" connectable="0" parent="l7O6cIsBJEB4oKwaQnPY-82">
          <mxGeometry y="5" relative="1" as="geometry">
            <mxPoint as="offset" />
          </mxGeometry>
        </mxCell>
        <mxCell id="l7O6cIsBJEB4oKwaQnPY-85" value="" style="edgeStyle=orthogonalEdgeStyle;rounded=0;orthogonalLoop=1;jettySize=auto;html=1;" edge="1" parent="1" source="l7O6cIsBJEB4oKwaQnPY-87" target="l7O6cIsBJEB4oKwaQnPY-89">
          <mxGeometry relative="1" as="geometry" />
        </mxCell>
        <mxCell id="l7O6cIsBJEB4oKwaQnPY-86" value="NO" style="edgeLabel;html=1;align=center;verticalAlign=middle;resizable=0;points=[];" vertex="1" connectable="0" parent="l7O6cIsBJEB4oKwaQnPY-85">
          <mxGeometry x="-0.1529" y="-3" relative="1" as="geometry">
            <mxPoint as="offset" />
          </mxGeometry>
        </mxCell>
        <mxCell id="l7O6cIsBJEB4oKwaQnPY-87" value="Access to file ?" style="rhombus;whiteSpace=wrap;html=1;" vertex="1" parent="1">
          <mxGeometry x="930" y="640" width="130" height="80" as="geometry" />
        </mxCell>
        <mxCell id="l7O6cIsBJEB4oKwaQnPY-89" value="&lt;div&gt;print error;&lt;/div&gt;&lt;div&gt;INVALID_PATH = true;&lt;br&gt;&lt;/div&gt;" style="rounded=1;whiteSpace=wrap;html=1;" vertex="1" parent="1">
          <mxGeometry x="1137.5" y="650" width="120" height="60" as="geometry" />
        </mxCell>
        <mxCell id="l7O6cIsBJEB4oKwaQnPY-111" value="" style="edgeStyle=orthogonalEdgeStyle;rounded=0;orthogonalLoop=1;jettySize=auto;html=1;" edge="1" parent="1" source="l7O6cIsBJEB4oKwaQnPY-96" target="l7O6cIsBJEB4oKwaQnPY-105">
          <mxGeometry relative="1" as="geometry" />
        </mxCell>
        <mxCell id="l7O6cIsBJEB4oKwaQnPY-96" value="Create FILE" style="swimlane;fontStyle=0;childLayout=stackLayout;horizontal=1;startSize=30;horizontalStack=0;resizeParent=1;resizeParentMax=0;resizeLast=0;collapsible=1;marginBottom=0;whiteSpace=wrap;html=1;" vertex="1" parent="1">
          <mxGeometry x="510" y="620" width="340" height="250" as="geometry" />
        </mxCell>
        <mxCell id="l7O6cIsBJEB4oKwaQnPY-97" value="&lt;div&gt;Init struct FILE;&lt;/div&gt;" style="text;strokeColor=default;fillColor=none;align=left;verticalAlign=middle;spacingLeft=4;spacingRight=4;overflow=hidden;points=[[0,0.5],[1,0.5]];portConstraint=eastwest;rotatable=0;whiteSpace=wrap;html=1;dashed=1;dashPattern=8 8;" vertex="1" parent="l7O6cIsBJEB4oKwaQnPY-96">
          <mxGeometry y="30" width="340" height="30" as="geometry" />
        </mxCell>
        <mxCell id="l7O6cIsBJEB4oKwaQnPY-99" value="&lt;div&gt;if (-l or -t ) ?&lt;/div&gt;&lt;div align=&quot;left&quot;&gt;&lt;span style=&quot;white-space: pre;&quot;&gt;&#x9;&lt;/span&gt;convert time;&lt;br&gt;&lt;span style=&quot;white-space: pre;&quot;&gt;&#x9;&lt;/span&gt;set bool 6_MONTHS_OLD;&lt;/div&gt;" style="text;strokeColor=default;fillColor=none;align=left;verticalAlign=middle;spacingLeft=4;spacingRight=4;overflow=hidden;points=[[0,0.5],[1,0.5]];portConstraint=eastwest;rotatable=0;whiteSpace=wrap;html=1;dashed=1;dashPattern=8 8;" vertex="1" parent="l7O6cIsBJEB4oKwaQnPY-96">
          <mxGeometry y="60" width="340" height="70" as="geometry" />
        </mxCell>
        <mxCell id="l7O6cIsBJEB4oKwaQnPY-104" value="&lt;div&gt;if (-l) ?&lt;/div&gt;&lt;div&gt;&lt;span style=&quot;white-space: pre;&quot;&gt;&#x9;&lt;/span&gt;set INFO_FILE;&lt;/div&gt;" style="text;strokeColor=none;fillColor=none;align=left;verticalAlign=middle;spacingLeft=4;spacingRight=4;overflow=hidden;points=[[0,0.5],[1,0.5]];portConstraint=eastwest;rotatable=0;whiteSpace=wrap;html=1;" vertex="1" parent="l7O6cIsBJEB4oKwaQnPY-96">
          <mxGeometry y="130" width="340" height="60" as="geometry" />
        </mxCell>
        <mxCell id="l7O6cIsBJEB4oKwaQnPY-103" value="add PATH" style="text;strokeColor=default;fillColor=none;align=left;verticalAlign=middle;spacingLeft=4;spacingRight=4;overflow=hidden;points=[[0,0.5],[1,0.5]];portConstraint=eastwest;rotatable=0;whiteSpace=wrap;html=1;dashed=1;dashPattern=8 8;" vertex="1" parent="l7O6cIsBJEB4oKwaQnPY-96">
          <mxGeometry y="190" width="340" height="60" as="geometry" />
        </mxCell>
        <mxCell id="l7O6cIsBJEB4oKwaQnPY-113" value="" style="edgeStyle=orthogonalEdgeStyle;rounded=0;orthogonalLoop=1;jettySize=auto;html=1;entryX=1;entryY=0.5;entryDx=0;entryDy=0;" edge="1" parent="1" target="l7O6cIsBJEB4oKwaQnPY-112">
          <mxGeometry relative="1" as="geometry">
            <mxPoint x="615" y="1000" as="sourcePoint" />
            <mxPoint x="550" y="1000" as="targetPoint" />
          </mxGeometry>
        </mxCell>
        <mxCell id="l7O6cIsBJEB4oKwaQnPY-119" value="YES" style="edgeLabel;html=1;align=center;verticalAlign=middle;resizable=0;points=[];" vertex="1" connectable="0" parent="l7O6cIsBJEB4oKwaQnPY-113">
          <mxGeometry x="0.0154" y="-1" relative="1" as="geometry">
            <mxPoint y="3" as="offset" />
          </mxGeometry>
        </mxCell>
        <mxCell id="l7O6cIsBJEB4oKwaQnPY-117" value="" style="edgeStyle=orthogonalEdgeStyle;rounded=0;orthogonalLoop=1;jettySize=auto;html=1;" edge="1" parent="1" source="l7O6cIsBJEB4oKwaQnPY-105" target="l7O6cIsBJEB4oKwaQnPY-116">
          <mxGeometry relative="1" as="geometry" />
        </mxCell>
        <mxCell id="l7O6cIsBJEB4oKwaQnPY-118" value="&lt;div&gt;NO&lt;/div&gt;" style="edgeLabel;html=1;align=center;verticalAlign=middle;resizable=0;points=[];" vertex="1" connectable="0" parent="l7O6cIsBJEB4oKwaQnPY-117">
          <mxGeometry x="0.1868" y="-5" relative="1" as="geometry">
            <mxPoint y="-1" as="offset" />
          </mxGeometry>
        </mxCell>
        <mxCell id="l7O6cIsBJEB4oKwaQnPY-105" value="Is it a directory ?" style="rhombus;whiteSpace=wrap;html=1;" vertex="1" parent="1">
          <mxGeometry x="615" y="960" width="130" height="80" as="geometry" />
        </mxCell>
        <mxCell id="l7O6cIsBJEB4oKwaQnPY-112" value="Add to LIST_DIR" style="rounded=1;whiteSpace=wrap;html=1;" vertex="1" parent="1">
          <mxGeometry x="420" y="970" width="120" height="60" as="geometry" />
        </mxCell>
        <mxCell id="l7O6cIsBJEB4oKwaQnPY-116" value="Add to LIST_NOT _DIR" style="rounded=1;whiteSpace=wrap;html=1;" vertex="1" parent="1">
          <mxGeometry x="810" y="970" width="120" height="60" as="geometry" />
        </mxCell>
        <mxCell id="l7O6cIsBJEB4oKwaQnPY-128" value="" style="edgeStyle=orthogonalEdgeStyle;rounded=0;orthogonalLoop=1;jettySize=auto;html=1;" edge="1" parent="1" source="l7O6cIsBJEB4oKwaQnPY-124" target="l7O6cIsBJEB4oKwaQnPY-127">
          <mxGeometry relative="1" as="geometry" />
        </mxCell>
        <mxCell id="l7O6cIsBJEB4oKwaQnPY-137" value="" style="edgeStyle=orthogonalEdgeStyle;rounded=0;orthogonalLoop=1;jettySize=auto;html=1;" edge="1" parent="1" source="l7O6cIsBJEB4oKwaQnPY-124" target="l7O6cIsBJEB4oKwaQnPY-136">
          <mxGeometry relative="1" as="geometry" />
        </mxCell>
        <mxCell id="l7O6cIsBJEB4oKwaQnPY-124" value="Is LIST_PATHS empty ?" style="rhombus;whiteSpace=wrap;html=1;" vertex="1" parent="1">
          <mxGeometry x="245" y="1062" width="160" height="80" as="geometry" />
        </mxCell>
        <mxCell id="l7O6cIsBJEB4oKwaQnPY-126" value="YES" style="edgeLabel;html=1;align=center;verticalAlign=middle;resizable=0;points=[];" vertex="1" connectable="0" parent="1">
          <mxGeometry x="227.50333318519824" y="1102" as="geometry" />
        </mxCell>
        <mxCell id="l7O6cIsBJEB4oKwaQnPY-127" value="Add cuurent dir to LIST_DIR" style="rounded=1;whiteSpace=wrap;html=1;" vertex="1" parent="1">
          <mxGeometry x="70" y="1072" width="120" height="60" as="geometry" />
        </mxCell>
        <mxCell id="l7O6cIsBJEB4oKwaQnPY-130" value="" style="endArrow=none;dashed=1;html=1;rounded=0;" edge="1" parent="1">
          <mxGeometry width="50" height="50" relative="1" as="geometry">
            <mxPoint x="20" y="240" as="sourcePoint" />
            <mxPoint x="1800" y="240" as="targetPoint" />
          </mxGeometry>
        </mxCell>
        <mxCell id="l7O6cIsBJEB4oKwaQnPY-133" value="parsing.c" style="text;html=1;align=center;verticalAlign=middle;whiteSpace=wrap;rounded=0;" vertex="1" parent="1">
          <mxGeometry x="20" y="200" width="70" height="40" as="geometry" />
        </mxCell>
        <mxCell id="l7O6cIsBJEB4oKwaQnPY-141" value="" style="edgeStyle=orthogonalEdgeStyle;rounded=0;orthogonalLoop=1;jettySize=auto;html=1;" edge="1" parent="1" source="l7O6cIsBJEB4oKwaQnPY-136">
          <mxGeometry relative="1" as="geometry">
            <mxPoint x="324.5000000000002" y="1360" as="targetPoint" />
          </mxGeometry>
        </mxCell>
        <mxCell id="l7O6cIsBJEB4oKwaQnPY-146" value="" style="edgeStyle=orthogonalEdgeStyle;rounded=0;orthogonalLoop=1;jettySize=auto;html=1;" edge="1" parent="1" source="l7O6cIsBJEB4oKwaQnPY-136" target="l7O6cIsBJEB4oKwaQnPY-145">
          <mxGeometry relative="1" as="geometry" />
        </mxCell>
        <mxCell id="l7O6cIsBJEB4oKwaQnPY-136" value="Sorting LIST_NOT_DIR&lt;u&gt;&lt;br&gt;&lt;/u&gt;" style="shape=mxgraph.flowchart.data;strokeWidth=2;gradientColor=none;gradientDirection=north;fontStyle=0;html=1;" vertex="1" parent="1">
          <mxGeometry x="245" y="1220" width="159" height="80" as="geometry" />
        </mxCell>
        <mxCell id="l7O6cIsBJEB4oKwaQnPY-138" value="" style="endArrow=none;dashed=1;html=1;rounded=0;" edge="1" parent="1">
          <mxGeometry width="50" height="50" relative="1" as="geometry">
            <mxPoint x="20" y="1190" as="sourcePoint" />
            <mxPoint x="1800" y="1190" as="targetPoint" />
          </mxGeometry>
        </mxCell>
        <mxCell id="l7O6cIsBJEB4oKwaQnPY-139" value="ft_ls.c" style="text;html=1;align=center;verticalAlign=middle;whiteSpace=wrap;rounded=0;" vertex="1" parent="1">
          <mxGeometry x="20" y="1150" width="70" height="40" as="geometry" />
        </mxCell>
        <mxCell id="l7O6cIsBJEB4oKwaQnPY-143" value="sorting.c" style="text;html=1;align=center;verticalAlign=middle;whiteSpace=wrap;rounded=0;" vertex="1" parent="1">
          <mxGeometry x="260" y="1190" width="60" height="30" as="geometry" />
        </mxCell>
        <mxCell id="l7O6cIsBJEB4oKwaQnPY-154" value="" style="edgeStyle=orthogonalEdgeStyle;rounded=0;orthogonalLoop=1;jettySize=auto;html=1;" edge="1" parent="1" source="l7O6cIsBJEB4oKwaQnPY-144">
          <mxGeometry relative="1" as="geometry">
            <mxPoint x="771" y="1500" as="targetPoint" />
          </mxGeometry>
        </mxCell>
        <mxCell id="l7O6cIsBJEB4oKwaQnPY-144" value="-l option ?" style="rhombus;whiteSpace=wrap;html=1;" vertex="1" parent="1">
          <mxGeometry x="841" y="1460" width="160" height="80" as="geometry" />
        </mxCell>
        <mxCell id="l7O6cIsBJEB4oKwaQnPY-147" value="" style="edgeStyle=orthogonalEdgeStyle;rounded=0;orthogonalLoop=1;jettySize=auto;html=1;" edge="1" parent="1" source="l7O6cIsBJEB4oKwaQnPY-145" target="l7O6cIsBJEB4oKwaQnPY-144">
          <mxGeometry relative="1" as="geometry" />
        </mxCell>
        <mxCell id="l7O6cIsBJEB4oKwaQnPY-163" value="" style="edgeStyle=orthogonalEdgeStyle;rounded=0;orthogonalLoop=1;jettySize=auto;html=1;dashed=1;dashPattern=8 8;" edge="1" parent="1" source="l7O6cIsBJEB4oKwaQnPY-145" target="l7O6cIsBJEB4oKwaQnPY-162">
          <mxGeometry relative="1" as="geometry" />
        </mxCell>
        <mxCell id="l7O6cIsBJEB4oKwaQnPY-145" value="For each sorted file in LIST_NOT_DIR" style="strokeWidth=2;html=1;shape=mxgraph.flowchart.loop_limit;whiteSpace=wrap;" vertex="1" parent="1">
          <mxGeometry x="259.5" y="1360" width="130" height="60" as="geometry" />
        </mxCell>
        <mxCell id="l7O6cIsBJEB4oKwaQnPY-149" value="" style="edgeStyle=orthogonalEdgeStyle;rounded=0;orthogonalLoop=1;jettySize=auto;html=1;" edge="1" parent="1" target="l7O6cIsBJEB4oKwaQnPY-151">
          <mxGeometry relative="1" as="geometry">
            <mxPoint x="1001" y="1500" as="sourcePoint" />
          </mxGeometry>
        </mxCell>
        <mxCell id="l7O6cIsBJEB4oKwaQnPY-150" value="&lt;div&gt;NO&lt;/div&gt;" style="edgeLabel;html=1;align=center;verticalAlign=middle;resizable=0;points=[];" vertex="1" connectable="0" parent="l7O6cIsBJEB4oKwaQnPY-149">
          <mxGeometry x="0.1868" y="-5" relative="1" as="geometry">
            <mxPoint y="-1" as="offset" />
          </mxGeometry>
        </mxCell>
        <mxCell id="l7O6cIsBJEB4oKwaQnPY-151" value="Display NAME_FILE" style="rounded=1;whiteSpace=wrap;html=1;" vertex="1" parent="1">
          <mxGeometry x="1066" y="1470" width="120" height="60" as="geometry" />
        </mxCell>
        <mxCell id="l7O6cIsBJEB4oKwaQnPY-152" value="YES" style="edgeLabel;html=1;align=center;verticalAlign=middle;resizable=0;points=[];" vertex="1" connectable="0" parent="1">
          <mxGeometry x="808.6352748029631" y="1502.0000000000002" as="geometry" />
        </mxCell>
        <mxCell id="l7O6cIsBJEB4oKwaQnPY-155" value="Display INFO_FILE" style="swimlane;fontStyle=0;childLayout=stackLayout;horizontal=1;startSize=30;horizontalStack=0;resizeParent=1;resizeParentMax=0;resizeLast=0;collapsible=1;marginBottom=0;whiteSpace=wrap;html=1;" vertex="1" parent="1">
          <mxGeometry x="431" y="1440" width="340" height="260" as="geometry" />
        </mxCell>
        <mxCell id="l7O6cIsBJEB4oKwaQnPY-156" value="Display PERM, OWNER and GROUP;" style="text;strokeColor=default;fillColor=none;align=left;verticalAlign=middle;spacingLeft=4;spacingRight=4;overflow=hidden;points=[[0,0.5],[1,0.5]];portConstraint=eastwest;rotatable=0;whiteSpace=wrap;html=1;dashed=1;dashPattern=8 8;" vertex="1" parent="l7O6cIsBJEB4oKwaQnPY-155">
          <mxGeometry y="30" width="340" height="30" as="geometry" />
        </mxCell>
        <mxCell id="l7O6cIsBJEB4oKwaQnPY-157" value="&lt;div&gt;if (type &#39;c&#39; or &#39;b&#39; ) ?&lt;/div&gt;&lt;div align=&quot;left&quot;&gt;&lt;span style=&quot;white-space: pre;&quot;&gt;&#x9;&lt;/span&gt;display DEV_MAJOR and DEV_MINOR;&lt;br&gt;else&lt;/div&gt;&lt;div align=&quot;left&quot;&gt;&lt;span style=&quot;white-space: pre;&quot;&gt;&#x9;&lt;/span&gt;display SIZE&lt;br&gt;&lt;/div&gt;" style="text;strokeColor=default;fillColor=none;align=left;verticalAlign=middle;spacingLeft=4;spacingRight=4;overflow=hidden;points=[[0,0.5],[1,0.5]];portConstraint=eastwest;rotatable=0;whiteSpace=wrap;html=1;dashed=1;dashPattern=8 8;" vertex="1" parent="l7O6cIsBJEB4oKwaQnPY-155">
          <mxGeometry y="60" width="340" height="70" as="geometry" />
        </mxCell>
        <mxCell id="l7O6cIsBJEB4oKwaQnPY-158" value="&lt;div&gt;if (6_MONTHS_OLD) ?&lt;/div&gt;&lt;div&gt;&lt;span style=&quot;white-space: pre;&quot;&gt;&#x9;&lt;/span&gt;display YEAR;&lt;/div&gt;&lt;div&gt;else&lt;/div&gt;&lt;div&gt;&lt;span style=&quot;white-space: pre;&quot;&gt;&#x9;&lt;/span&gt;display DATE and TIME&lt;br&gt;&lt;/div&gt;" style="text;strokeColor=none;fillColor=none;align=left;verticalAlign=middle;spacingLeft=4;spacingRight=4;overflow=hidden;points=[[0,0.5],[1,0.5]];portConstraint=eastwest;rotatable=0;whiteSpace=wrap;html=1;" vertex="1" parent="l7O6cIsBJEB4oKwaQnPY-155">
          <mxGeometry y="130" width="340" height="70" as="geometry" />
        </mxCell>
        <mxCell id="l7O6cIsBJEB4oKwaQnPY-159" value="&lt;div&gt;if (type &#39;l&#39;)&lt;/div&gt;&lt;div&gt;&lt;span style=&quot;white-space: pre;&quot;&gt;&#x9;&lt;/span&gt;display LINKED_PATH&lt;br&gt;&lt;/div&gt;" style="text;strokeColor=default;fillColor=none;align=left;verticalAlign=middle;spacingLeft=4;spacingRight=4;overflow=hidden;points=[[0,0.5],[1,0.5]];portConstraint=eastwest;rotatable=0;whiteSpace=wrap;html=1;dashed=1;dashPattern=8 8;" vertex="1" parent="l7O6cIsBJEB4oKwaQnPY-155">
          <mxGeometry y="200" width="340" height="60" as="geometry" />
        </mxCell>
        <mxCell id="l7O6cIsBJEB4oKwaQnPY-161" value="For each sorted dir in LIST_DIR" style="strokeWidth=2;html=1;shape=mxgraph.flowchart.loop_limit;whiteSpace=wrap;" vertex="1" parent="1">
          <mxGeometry x="260" y="1900" width="130" height="60" as="geometry" />
        </mxCell>
        <mxCell id="l7O6cIsBJEB4oKwaQnPY-164" value="" style="edgeStyle=orthogonalEdgeStyle;rounded=0;orthogonalLoop=1;jettySize=auto;html=1;" edge="1" parent="1" source="l7O6cIsBJEB4oKwaQnPY-162" target="l7O6cIsBJEB4oKwaQnPY-161">
          <mxGeometry relative="1" as="geometry" />
        </mxCell>
        <mxCell id="l7O6cIsBJEB4oKwaQnPY-162" value="Sorting LIST_DIR&lt;u&gt;&lt;br&gt;&lt;/u&gt;" style="shape=mxgraph.flowchart.data;strokeWidth=2;gradientColor=none;gradientDirection=north;fontStyle=0;html=1;" vertex="1" parent="1">
          <mxGeometry x="245.5" y="1750" width="159" height="80" as="geometry" />
        </mxCell>
        <mxCell id="l7O6cIsBJEB4oKwaQnPY-165" value="sorting.c" style="text;html=1;align=center;verticalAlign=middle;whiteSpace=wrap;rounded=0;" vertex="1" parent="1">
          <mxGeometry x="259.5" y="1720" width="60" height="30" as="geometry" />
        </mxCell>
      </root>
    </mxGraphModel>
  </diagram>
</mxfile>
